<mxfile modified="2024-08-09T19:30:08.693Z" host="Electron" agent="Mozilla/5.0 (Windows NT 10.0; Win64; x64) AppleWebKit/537.36 (KHTML, like Gecko) draw.io/24.6.4 Chrome/124.0.6367.207 Electron/30.0.6 Safari/537.36" etag="-Is7iDbm2YVM668L9BM-" version="24.6.4" type="device">
  <diagram id="Ht1M8jgEwFfnCIfOTk4-" name="Page-1">
    <mxGraphModel dx="1687" dy="1634" grid="1" gridSize="10" guides="1" tooltips="1" connect="1" arrows="1" fold="1" page="1" pageScale="1" pageWidth="827" pageHeight="1169" math="0" shadow="0">
      <root>
        <mxCell id="0" />
        <mxCell id="1" parent="0" />
        <mxCell id="KW59PeZABZt6SA6DWuRM-1" value="AWS Cloud" style="points=[[0,0],[0.25,0],[0.5,0],[0.75,0],[1,0],[1,0.25],[1,0.5],[1,0.75],[1,1],[0.75,1],[0.5,1],[0.25,1],[0,1],[0,0.75],[0,0.5],[0,0.25]];outlineConnect=0;gradientColor=none;html=1;whiteSpace=wrap;fontSize=12;fontStyle=0;shape=mxgraph.aws4.group;grIcon=mxgraph.aws4.group_aws_cloud_alt;strokeColor=#232F3E;fillColor=none;verticalAlign=top;align=left;spacingLeft=30;fontColor=#232F3E;dashed=0;container=1;pointerEvents=0;collapsible=0;recursiveResize=0;movable=1;resizable=1;rotatable=1;deletable=1;editable=1;locked=0;connectable=1;" parent="1" vertex="1">
          <mxGeometry x="1120" y="120" width="1240" height="1550" as="geometry" />
        </mxCell>
        <mxCell id="KW59PeZABZt6SA6DWuRM-3" value="VPC" style="points=[[0,0],[0.25,0],[0.5,0],[0.75,0],[1,0],[1,0.25],[1,0.5],[1,0.75],[1,1],[0.75,1],[0.5,1],[0.25,1],[0,1],[0,0.75],[0,0.5],[0,0.25]];outlineConnect=0;gradientColor=none;html=1;whiteSpace=wrap;fontSize=12;fontStyle=0;container=1;pointerEvents=0;collapsible=0;recursiveResize=0;shape=mxgraph.aws4.group;grIcon=mxgraph.aws4.group_vpc2;strokeColor=#8C4FFF;fillColor=none;verticalAlign=top;align=left;spacingLeft=30;fontColor=#AAB7B8;dashed=0;" parent="KW59PeZABZt6SA6DWuRM-1" vertex="1">
          <mxGeometry x="40" y="80" width="1160" height="1440" as="geometry" />
        </mxCell>
        <mxCell id="YAXFw-S7Jnl4mdZOeOcL-41" value="Availability Zone" style="fillColor=none;strokeColor=#147EBA;dashed=1;verticalAlign=top;fontStyle=0;fontColor=#147EBA;whiteSpace=wrap;html=1;" parent="KW59PeZABZt6SA6DWuRM-3" vertex="1">
          <mxGeometry x="720" y="198.63" width="401" height="721.37" as="geometry" />
        </mxCell>
        <mxCell id="KW59PeZABZt6SA6DWuRM-12" value="Availability Zone" style="fillColor=none;strokeColor=#147EBA;dashed=1;verticalAlign=top;fontStyle=0;fontColor=#147EBA;whiteSpace=wrap;html=1;" parent="KW59PeZABZt6SA6DWuRM-3" vertex="1">
          <mxGeometry x="39" y="198.63" width="401" height="721.37" as="geometry" />
        </mxCell>
        <mxCell id="KW59PeZABZt6SA6DWuRM-4" value="Public subnet" style="points=[[0,0],[0.25,0],[0.5,0],[0.75,0],[1,0],[1,0.25],[1,0.5],[1,0.75],[1,1],[0.75,1],[0.5,1],[0.25,1],[0,1],[0,0.75],[0,0.5],[0,0.25]];outlineConnect=0;gradientColor=none;html=1;whiteSpace=wrap;fontSize=12;fontStyle=0;container=1;pointerEvents=0;collapsible=0;recursiveResize=0;shape=mxgraph.aws4.group;grIcon=mxgraph.aws4.group_security_group;grStroke=0;strokeColor=#7AA116;fillColor=#F2F6E8;verticalAlign=top;align=left;spacingLeft=30;fontColor=#248814;dashed=0;" parent="KW59PeZABZt6SA6DWuRM-3" vertex="1">
          <mxGeometry x="81" y="320" width="319" height="560" as="geometry" />
        </mxCell>
        <mxCell id="Jj9UYMmZ1Mb0EDD-zCcL-1" value="" style="sketch=0;points=[[0,0,0],[0.25,0,0],[0.5,0,0],[0.75,0,0],[1,0,0],[0,1,0],[0.25,1,0],[0.5,1,0],[0.75,1,0],[1,1,0],[0,0.25,0],[0,0.5,0],[0,0.75,0],[1,0.25,0],[1,0.5,0],[1,0.75,0]];outlineConnect=0;fontColor=#232F3E;fillColor=#ED7100;strokeColor=#ffffff;dashed=0;verticalLabelPosition=bottom;verticalAlign=top;align=center;html=1;fontSize=12;fontStyle=0;aspect=fixed;shape=mxgraph.aws4.resourceIcon;resIcon=mxgraph.aws4.ec2;" parent="KW59PeZABZt6SA6DWuRM-4" vertex="1">
          <mxGeometry x="80" y="196.25" width="78" height="78" as="geometry" />
        </mxCell>
        <mxCell id="K1Jlephq4LcjaDRVlc-C-10" value="" style="sketch=0;outlineConnect=0;fontColor=#232F3E;gradientColor=none;fillColor=#ED7100;strokeColor=none;dashed=0;verticalLabelPosition=bottom;verticalAlign=top;align=center;html=1;fontSize=12;fontStyle=0;aspect=fixed;pointerEvents=1;shape=mxgraph.aws4.ecs_task;" vertex="1" parent="KW59PeZABZt6SA6DWuRM-4">
          <mxGeometry x="100.5" y="390" width="37" height="48" as="geometry" />
        </mxCell>
        <mxCell id="KW59PeZABZt6SA6DWuRM-8" value="10.0.1.0/24" style="text;html=1;align=left;verticalAlign=middle;whiteSpace=wrap;rounded=0;fillColor=#d5e8d4;strokeColor=#82b366;" parent="KW59PeZABZt6SA6DWuRM-3" vertex="1">
          <mxGeometry x="81" y="299.5" width="100" height="20" as="geometry" />
        </mxCell>
        <mxCell id="KW59PeZABZt6SA6DWuRM-13" value="us-east-1a" style="text;html=1;align=center;verticalAlign=middle;whiteSpace=wrap;rounded=0;fillColor=#dae8fc;strokeColor=#6c8ebf;" parent="KW59PeZABZt6SA6DWuRM-3" vertex="1">
          <mxGeometry x="39" y="180" width="100" height="20" as="geometry" />
        </mxCell>
        <mxCell id="iPUKWWcroHYGa8-xgQve-2" value="Public subnet" style="points=[[0,0],[0.25,0],[0.5,0],[0.75,0],[1,0],[1,0.25],[1,0.5],[1,0.75],[1,1],[0.75,1],[0.5,1],[0.25,1],[0,1],[0,0.75],[0,0.5],[0,0.25]];outlineConnect=0;gradientColor=none;html=1;whiteSpace=wrap;fontSize=12;fontStyle=0;container=1;pointerEvents=0;collapsible=0;recursiveResize=0;shape=mxgraph.aws4.group;grIcon=mxgraph.aws4.group_security_group;grStroke=0;strokeColor=#7AA116;fillColor=#F2F6E8;verticalAlign=top;align=left;spacingLeft=30;fontColor=#248814;dashed=0;" parent="KW59PeZABZt6SA6DWuRM-3" vertex="1">
          <mxGeometry x="760" y="320" width="320" height="560" as="geometry" />
        </mxCell>
        <mxCell id="Jj9UYMmZ1Mb0EDD-zCcL-2" value="" style="sketch=0;points=[[0,0,0],[0.25,0,0],[0.5,0,0],[0.75,0,0],[1,0,0],[0,1,0],[0.25,1,0],[0.5,1,0],[0.75,1,0],[1,1,0],[0,0.25,0],[0,0.5,0],[0,0.75,0],[1,0.25,0],[1,0.5,0],[1,0.75,0]];outlineConnect=0;fontColor=#232F3E;fillColor=#ED7100;strokeColor=#ffffff;dashed=0;verticalLabelPosition=bottom;verticalAlign=top;align=center;html=1;fontSize=12;fontStyle=0;aspect=fixed;shape=mxgraph.aws4.resourceIcon;resIcon=mxgraph.aws4.ec2;" parent="iPUKWWcroHYGa8-xgQve-2" vertex="1">
          <mxGeometry x="121" y="196.25" width="78" height="78" as="geometry" />
        </mxCell>
        <mxCell id="Jj9UYMmZ1Mb0EDD-zCcL-6" value="" style="rounded=0;whiteSpace=wrap;html=1;fillColor=none;dashed=1;strokeColor=#ed7100;gradientColor=none;" parent="iPUKWWcroHYGa8-xgQve-2" vertex="1">
          <mxGeometry x="-650" y="180" width="900" height="110" as="geometry" />
        </mxCell>
        <mxCell id="K1Jlephq4LcjaDRVlc-C-15" value="" style="sketch=0;outlineConnect=0;fontColor=#232F3E;gradientColor=none;fillColor=#ED7100;strokeColor=none;dashed=0;verticalLabelPosition=bottom;verticalAlign=top;align=center;html=1;fontSize=12;fontStyle=0;aspect=fixed;pointerEvents=1;shape=mxgraph.aws4.ecs_task;" vertex="1" parent="iPUKWWcroHYGa8-xgQve-2">
          <mxGeometry x="141.5" y="390" width="37" height="48" as="geometry" />
        </mxCell>
        <mxCell id="iPUKWWcroHYGa8-xgQve-6" value="10.0.2.0/24" style="text;html=1;align=left;verticalAlign=middle;whiteSpace=wrap;rounded=0;fillColor=#d5e8d4;strokeColor=#82b366;" parent="KW59PeZABZt6SA6DWuRM-3" vertex="1">
          <mxGeometry x="760" y="299.5" width="100" height="20" as="geometry" />
        </mxCell>
        <mxCell id="YAXFw-S7Jnl4mdZOeOcL-2" value="us-east-1b" style="text;html=1;align=center;verticalAlign=middle;whiteSpace=wrap;rounded=0;fillColor=#dae8fc;strokeColor=#6c8ebf;" parent="KW59PeZABZt6SA6DWuRM-3" vertex="1">
          <mxGeometry x="720" y="180" width="100" height="20" as="geometry" />
        </mxCell>
        <mxCell id="Jj9UYMmZ1Mb0EDD-zCcL-15" style="edgeStyle=orthogonalEdgeStyle;rounded=0;orthogonalLoop=1;jettySize=auto;html=1;" parent="KW59PeZABZt6SA6DWuRM-3" source="K1Jlephq4LcjaDRVlc-C-32" target="Jj9UYMmZ1Mb0EDD-zCcL-1" edge="1">
          <mxGeometry relative="1" as="geometry">
            <Array as="points">
              <mxPoint x="580" y="450" />
              <mxPoint x="190" y="450" />
            </Array>
            <mxPoint x="580" y="330" as="sourcePoint" />
          </mxGeometry>
        </mxCell>
        <mxCell id="Jj9UYMmZ1Mb0EDD-zCcL-16" style="edgeStyle=orthogonalEdgeStyle;rounded=0;orthogonalLoop=1;jettySize=auto;html=1;" parent="KW59PeZABZt6SA6DWuRM-3" source="K1Jlephq4LcjaDRVlc-C-32" target="Jj9UYMmZ1Mb0EDD-zCcL-2" edge="1">
          <mxGeometry relative="1" as="geometry">
            <Array as="points">
              <mxPoint x="580" y="450" />
              <mxPoint x="920" y="450" />
            </Array>
            <mxPoint x="580" y="280" as="sourcePoint" />
          </mxGeometry>
        </mxCell>
        <mxCell id="YAXFw-S7Jnl4mdZOeOcL-17" value="" style="sketch=0;points=[[0,0,0],[0.25,0,0],[0.5,0,0],[0.75,0,0],[1,0,0],[0,1,0],[0.25,1,0],[0.5,1,0],[0.75,1,0],[1,1,0],[0,0.25,0],[0,0.5,0],[0,0.75,0],[1,0.25,0],[1,0.5,0],[1,0.75,0]];outlineConnect=0;fontColor=#232F3E;fillColor=#7AA116;strokeColor=#ffffff;dashed=0;verticalLabelPosition=bottom;verticalAlign=top;align=center;html=1;fontSize=12;fontStyle=0;aspect=fixed;shape=mxgraph.aws4.resourceIcon;resIcon=mxgraph.aws4.efs_standard;" parent="KW59PeZABZt6SA6DWuRM-3" vertex="1">
          <mxGeometry x="521" y="860" width="78" height="78" as="geometry" />
        </mxCell>
        <mxCell id="Jj9UYMmZ1Mb0EDD-zCcL-10" value="&lt;font style=&quot;font-size: 14px;&quot;&gt;ECS Capacity Provider&lt;/font&gt;" style="text;html=1;align=left;verticalAlign=middle;whiteSpace=wrap;rounded=0;" parent="KW59PeZABZt6SA6DWuRM-3" vertex="1">
          <mxGeometry x="100" y="630.5" width="150" height="19.5" as="geometry" />
        </mxCell>
        <mxCell id="Jj9UYMmZ1Mb0EDD-zCcL-13" value="&lt;font style=&quot;font-size: 14px;&quot;&gt;ECS Service&lt;/font&gt;" style="text;html=1;align=left;verticalAlign=middle;whiteSpace=wrap;rounded=0;" parent="KW59PeZABZt6SA6DWuRM-3" vertex="1">
          <mxGeometry x="100" y="771" width="198" height="19.5" as="geometry" />
        </mxCell>
        <mxCell id="K1Jlephq4LcjaDRVlc-C-8" style="edgeStyle=orthogonalEdgeStyle;rounded=0;orthogonalLoop=1;jettySize=auto;html=1;exitX=1;exitY=0.5;exitDx=0;exitDy=0;exitPerimeter=0;" edge="1" parent="KW59PeZABZt6SA6DWuRM-3" source="K1Jlephq4LcjaDRVlc-C-4" target="K1Jlephq4LcjaDRVlc-C-5">
          <mxGeometry relative="1" as="geometry" />
        </mxCell>
        <mxCell id="K1Jlephq4LcjaDRVlc-C-4" value="" style="sketch=0;points=[[0,0,0],[0.25,0,0],[0.5,0,0],[0.75,0,0],[1,0,0],[0,1,0],[0.25,1,0],[0.5,1,0],[0.75,1,0],[1,1,0],[0,0.25,0],[0,0.5,0],[0,0.75,0],[1,0.25,0],[1,0.5,0],[1,0.75,0]];outlineConnect=0;fontColor=#232F3E;fillColor=#C925D1;strokeColor=#ffffff;dashed=0;verticalLabelPosition=bottom;verticalAlign=top;align=center;html=1;fontSize=12;fontStyle=0;aspect=fixed;shape=mxgraph.aws4.resourceIcon;resIcon=mxgraph.aws4.codepipeline;" vertex="1" parent="KW59PeZABZt6SA6DWuRM-3">
          <mxGeometry x="200.5" y="1050" width="78" height="78" as="geometry" />
        </mxCell>
        <mxCell id="K1Jlephq4LcjaDRVlc-C-9" style="edgeStyle=orthogonalEdgeStyle;rounded=0;orthogonalLoop=1;jettySize=auto;html=1;exitX=1;exitY=0.5;exitDx=0;exitDy=0;exitPerimeter=0;" edge="1" parent="KW59PeZABZt6SA6DWuRM-3" source="K1Jlephq4LcjaDRVlc-C-5" target="K1Jlephq4LcjaDRVlc-C-6">
          <mxGeometry relative="1" as="geometry" />
        </mxCell>
        <mxCell id="K1Jlephq4LcjaDRVlc-C-21" style="edgeStyle=orthogonalEdgeStyle;rounded=0;orthogonalLoop=1;jettySize=auto;html=1;" edge="1" parent="KW59PeZABZt6SA6DWuRM-3" source="K1Jlephq4LcjaDRVlc-C-5" target="K1Jlephq4LcjaDRVlc-C-20">
          <mxGeometry relative="1" as="geometry" />
        </mxCell>
        <mxCell id="K1Jlephq4LcjaDRVlc-C-5" value="" style="sketch=0;points=[[0,0,0],[0.25,0,0],[0.5,0,0],[0.75,0,0],[1,0,0],[0,1,0],[0.25,1,0],[0.5,1,0],[0.75,1,0],[1,1,0],[0,0.25,0],[0,0.5,0],[0,0.75,0],[1,0.25,0],[1,0.5,0],[1,0.75,0]];outlineConnect=0;fontColor=#232F3E;fillColor=#C925D1;strokeColor=#ffffff;dashed=0;verticalLabelPosition=bottom;verticalAlign=top;align=center;html=1;fontSize=12;fontStyle=0;aspect=fixed;shape=mxgraph.aws4.resourceIcon;resIcon=mxgraph.aws4.codebuild;" vertex="1" parent="KW59PeZABZt6SA6DWuRM-3">
          <mxGeometry x="521" y="1050" width="78" height="78" as="geometry" />
        </mxCell>
        <mxCell id="K1Jlephq4LcjaDRVlc-C-25" style="edgeStyle=orthogonalEdgeStyle;rounded=0;orthogonalLoop=1;jettySize=auto;html=1;exitX=1;exitY=0.5;exitDx=0;exitDy=0;exitPerimeter=0;entryX=1;entryY=0.5;entryDx=0;entryDy=0;" edge="1" parent="KW59PeZABZt6SA6DWuRM-3" source="K1Jlephq4LcjaDRVlc-C-6" target="Jj9UYMmZ1Mb0EDD-zCcL-23">
          <mxGeometry relative="1" as="geometry">
            <Array as="points">
              <mxPoint x="1140" y="1089" />
              <mxPoint x="1140" y="597" />
            </Array>
          </mxGeometry>
        </mxCell>
        <mxCell id="K1Jlephq4LcjaDRVlc-C-6" value="" style="sketch=0;points=[[0,0,0],[0.25,0,0],[0.5,0,0],[0.75,0,0],[1,0,0],[0,1,0],[0.25,1,0],[0.5,1,0],[0.75,1,0],[1,1,0],[0,0.25,0],[0,0.5,0],[0,0.75,0],[1,0.25,0],[1,0.5,0],[1,0.75,0]];outlineConnect=0;fontColor=#232F3E;fillColor=#C925D1;strokeColor=#ffffff;dashed=0;verticalLabelPosition=bottom;verticalAlign=top;align=center;html=1;fontSize=12;fontStyle=0;aspect=fixed;shape=mxgraph.aws4.resourceIcon;resIcon=mxgraph.aws4.codedeploy;" vertex="1" parent="KW59PeZABZt6SA6DWuRM-3">
          <mxGeometry x="881" y="1050" width="78" height="78" as="geometry" />
        </mxCell>
        <mxCell id="KW59PeZABZt6SA6DWuRM-6" value="" style="sketch=0;outlineConnect=0;fontColor=#232F3E;gradientColor=none;fillColor=#8C4FFF;strokeColor=none;dashed=0;verticalLabelPosition=bottom;verticalAlign=top;align=center;html=1;fontSize=12;fontStyle=0;aspect=fixed;pointerEvents=1;shape=mxgraph.aws4.internet_gateway;" parent="KW59PeZABZt6SA6DWuRM-3" vertex="1">
          <mxGeometry x="556.25" y="-23.75" width="47.5" height="47.5" as="geometry" />
        </mxCell>
        <mxCell id="YAXFw-S7Jnl4mdZOeOcL-30" style="edgeStyle=orthogonalEdgeStyle;rounded=0;orthogonalLoop=1;jettySize=auto;html=1;" parent="KW59PeZABZt6SA6DWuRM-3" source="K1Jlephq4LcjaDRVlc-C-32" target="KW59PeZABZt6SA6DWuRM-6" edge="1">
          <mxGeometry relative="1" as="geometry">
            <mxPoint x="654.5" y="140" as="sourcePoint" />
          </mxGeometry>
        </mxCell>
        <mxCell id="K1Jlephq4LcjaDRVlc-C-16" style="edgeStyle=orthogonalEdgeStyle;rounded=0;orthogonalLoop=1;jettySize=auto;html=1;entryX=0.5;entryY=0;entryDx=0;entryDy=0;entryPerimeter=0;fillColor=#d5e8d4;strokeColor=#82b366;" edge="1" parent="KW59PeZABZt6SA6DWuRM-3" source="K1Jlephq4LcjaDRVlc-C-10" target="YAXFw-S7Jnl4mdZOeOcL-17">
          <mxGeometry relative="1" as="geometry" />
        </mxCell>
        <mxCell id="K1Jlephq4LcjaDRVlc-C-17" style="edgeStyle=orthogonalEdgeStyle;rounded=0;orthogonalLoop=1;jettySize=auto;html=1;fillColor=#d5e8d4;strokeColor=#82b366;" edge="1" parent="KW59PeZABZt6SA6DWuRM-3" source="K1Jlephq4LcjaDRVlc-C-15" target="YAXFw-S7Jnl4mdZOeOcL-17">
          <mxGeometry relative="1" as="geometry" />
        </mxCell>
        <mxCell id="Jj9UYMmZ1Mb0EDD-zCcL-12" value="" style="rounded=0;whiteSpace=wrap;html=1;fillColor=none;dashed=1;" parent="KW59PeZABZt6SA6DWuRM-3" vertex="1">
          <mxGeometry x="100" y="700" width="920" height="90" as="geometry" />
        </mxCell>
        <mxCell id="Jj9UYMmZ1Mb0EDD-zCcL-9" value="" style="rounded=0;whiteSpace=wrap;html=1;fillColor=none;dashed=1;strokeColor=#000000;" parent="KW59PeZABZt6SA6DWuRM-3" vertex="1">
          <mxGeometry x="100" y="430.75" width="920" height="219.25" as="geometry" />
        </mxCell>
        <mxCell id="Jj9UYMmZ1Mb0EDD-zCcL-23" value="" style="rounded=0;whiteSpace=wrap;html=1;gradientColor=none;fillColor=none;dashed=1;strokeWidth=3;" parent="KW59PeZABZt6SA6DWuRM-3" vertex="1">
          <mxGeometry x="90" y="385" width="940" height="425" as="geometry" />
        </mxCell>
        <mxCell id="K1Jlephq4LcjaDRVlc-C-18" value="" style="sketch=0;points=[[0,0,0],[0.25,0,0],[0.5,0,0],[0.75,0,0],[1,0,0],[0,1,0],[0.25,1,0],[0.5,1,0],[0.75,1,0],[1,1,0],[0,0.25,0],[0,0.5,0],[0,0.75,0],[1,0.25,0],[1,0.5,0],[1,0.75,0]];outlineConnect=0;fontColor=#232F3E;fillColor=#7AA116;strokeColor=#ffffff;dashed=0;verticalLabelPosition=bottom;verticalAlign=top;align=center;html=1;fontSize=12;fontStyle=0;aspect=fixed;shape=mxgraph.aws4.resourceIcon;resIcon=mxgraph.aws4.s3;" vertex="1" parent="KW59PeZABZt6SA6DWuRM-3">
          <mxGeometry x="39" y="1320" width="78" height="78" as="geometry" />
        </mxCell>
        <mxCell id="K1Jlephq4LcjaDRVlc-C-19" value="&lt;font style=&quot;font-size: 14px;&quot;&gt;Artifacts Bucket&lt;/font&gt;" style="text;html=1;align=left;verticalAlign=middle;resizable=0;points=[];autosize=1;strokeColor=none;fillColor=none;" vertex="1" parent="KW59PeZABZt6SA6DWuRM-3">
          <mxGeometry x="39" y="1398" width="120" height="30" as="geometry" />
        </mxCell>
        <mxCell id="K1Jlephq4LcjaDRVlc-C-20" value="" style="sketch=0;points=[[0,0,0],[0.25,0,0],[0.5,0,0],[0.75,0,0],[1,0,0],[0,1,0],[0.25,1,0],[0.5,1,0],[0.75,1,0],[1,1,0],[0,0.25,0],[0,0.5,0],[0,0.75,0],[1,0.25,0],[1,0.5,0],[1,0.75,0]];outlineConnect=0;fontColor=#232F3E;fillColor=#ED7100;strokeColor=#ffffff;dashed=0;verticalLabelPosition=bottom;verticalAlign=top;align=center;html=1;fontSize=12;fontStyle=0;aspect=fixed;shape=mxgraph.aws4.resourceIcon;resIcon=mxgraph.aws4.ecr;" vertex="1" parent="KW59PeZABZt6SA6DWuRM-3">
          <mxGeometry x="521" y="1240" width="78" height="78" as="geometry" />
        </mxCell>
        <mxCell id="K1Jlephq4LcjaDRVlc-C-22" value="" style="sketch=0;points=[[0,0,0],[0.25,0,0],[0.5,0,0],[0.75,0,0],[1,0,0],[0,1,0],[0.25,1,0],[0.5,1,0],[0.75,1,0],[1,1,0],[0,0.25,0],[0,0.5,0],[0,0.75,0],[1,0.25,0],[1,0.5,0],[1,0.75,0]];outlineConnect=0;fontColor=#232F3E;fillColor=#ED7100;strokeColor=#ffffff;dashed=0;verticalLabelPosition=bottom;verticalAlign=top;align=center;html=1;fontSize=12;fontStyle=0;aspect=fixed;shape=mxgraph.aws4.resourceIcon;resIcon=mxgraph.aws4.ecs;" vertex="1" parent="KW59PeZABZt6SA6DWuRM-3">
          <mxGeometry x="88" y="383" width="35" height="35" as="geometry" />
        </mxCell>
        <mxCell id="K1Jlephq4LcjaDRVlc-C-23" value="" style="sketch=0;outlineConnect=0;fontColor=#232F3E;gradientColor=none;fillColor=#ED7100;strokeColor=none;dashed=0;verticalLabelPosition=bottom;verticalAlign=top;align=center;html=1;fontSize=12;fontStyle=0;aspect=fixed;pointerEvents=1;shape=mxgraph.aws4.ecs_service;" vertex="1" parent="KW59PeZABZt6SA6DWuRM-3">
          <mxGeometry x="100" y="700" width="24.38" height="30" as="geometry" />
        </mxCell>
        <mxCell id="K1Jlephq4LcjaDRVlc-C-26" value="" style="rounded=0;whiteSpace=wrap;html=1;fillColor=none;dashed=1;" vertex="1" parent="KW59PeZABZt6SA6DWuRM-3">
          <mxGeometry x="40" y="1029" width="1040" height="120" as="geometry" />
        </mxCell>
        <mxCell id="K1Jlephq4LcjaDRVlc-C-30" style="edgeStyle=orthogonalEdgeStyle;rounded=0;orthogonalLoop=1;jettySize=auto;html=1;exitX=0.25;exitY=1;exitDx=0;exitDy=0;entryX=1;entryY=0.5;entryDx=0;entryDy=0;entryPerimeter=0;" edge="1" parent="KW59PeZABZt6SA6DWuRM-3" source="K1Jlephq4LcjaDRVlc-C-26" target="K1Jlephq4LcjaDRVlc-C-18">
          <mxGeometry relative="1" as="geometry" />
        </mxCell>
        <mxCell id="K1Jlephq4LcjaDRVlc-C-32" value="" style="sketch=0;outlineConnect=0;fontColor=#232F3E;gradientColor=none;fillColor=#8C4FFF;strokeColor=none;dashed=0;verticalLabelPosition=bottom;verticalAlign=top;align=center;html=1;fontSize=12;fontStyle=0;aspect=fixed;pointerEvents=1;shape=mxgraph.aws4.application_load_balancer;" vertex="1" parent="KW59PeZABZt6SA6DWuRM-3">
          <mxGeometry x="541" y="151" width="78" height="78" as="geometry" />
        </mxCell>
        <mxCell id="KW59PeZABZt6SA6DWuRM-7" value="10.0.0.0/16" style="text;html=1;align=left;verticalAlign=middle;whiteSpace=wrap;rounded=0;fillColor=#e1d5e7;strokeColor=#9673a6;" parent="KW59PeZABZt6SA6DWuRM-1" vertex="1">
          <mxGeometry x="40" y="60" width="100" height="20" as="geometry" />
        </mxCell>
        <mxCell id="YAXFw-S7Jnl4mdZOeOcL-12" style="edgeStyle=orthogonalEdgeStyle;rounded=0;orthogonalLoop=1;jettySize=auto;html=1;exitX=0.5;exitY=1;exitDx=0;exitDy=0;exitPerimeter=0;" parent="1" source="KW59PeZABZt6SA6DWuRM-2" target="KW59PeZABZt6SA6DWuRM-6" edge="1">
          <mxGeometry relative="1" as="geometry" />
        </mxCell>
        <mxCell id="KW59PeZABZt6SA6DWuRM-2" value="" style="sketch=0;pointerEvents=1;shadow=0;dashed=0;html=1;strokeColor=none;labelPosition=center;verticalLabelPosition=bottom;verticalAlign=top;align=center;fillColor=#505050;shape=mxgraph.mscae.intune.user_group" parent="1" vertex="1">
          <mxGeometry x="1716.25" y="30" width="50" height="37" as="geometry" />
        </mxCell>
        <mxCell id="YAXFw-S7Jnl4mdZOeOcL-11" style="edgeStyle=orthogonalEdgeStyle;rounded=0;orthogonalLoop=1;jettySize=auto;html=1;exitX=0.5;exitY=1;exitDx=0;exitDy=0;exitPerimeter=0;entryX=0.96;entryY=0.65;entryDx=0;entryDy=0;entryPerimeter=0;" parent="1" source="KW59PeZABZt6SA6DWuRM-2" target="KW59PeZABZt6SA6DWuRM-2" edge="1">
          <mxGeometry relative="1" as="geometry" />
        </mxCell>
        <mxCell id="K1Jlephq4LcjaDRVlc-C-1" value="" style="dashed=0;outlineConnect=0;html=1;align=center;labelPosition=center;verticalLabelPosition=bottom;verticalAlign=top;shape=mxgraph.weblogos.github" vertex="1" parent="1">
          <mxGeometry x="940" y="1251.5" width="75" height="75" as="geometry" />
        </mxCell>
        <mxCell id="K1Jlephq4LcjaDRVlc-C-13" value="" style="sketch=0;outlineConnect=0;fontColor=#232F3E;gradientColor=none;fillColor=#ED7100;strokeColor=none;dashed=0;verticalLabelPosition=bottom;verticalAlign=top;align=center;html=1;fontSize=12;fontStyle=0;aspect=fixed;pointerEvents=1;shape=mxgraph.aws4.auto_scaling2;" vertex="1" parent="1">
          <mxGeometry x="1273" y="702.25" width="32" height="32" as="geometry" />
        </mxCell>
        <mxCell id="K1Jlephq4LcjaDRVlc-C-7" style="edgeStyle=orthogonalEdgeStyle;rounded=0;orthogonalLoop=1;jettySize=auto;html=1;" edge="1" parent="1" source="K1Jlephq4LcjaDRVlc-C-1" target="K1Jlephq4LcjaDRVlc-C-4">
          <mxGeometry relative="1" as="geometry">
            <mxPoint x="1024" y="1519" as="sourcePoint" />
          </mxGeometry>
        </mxCell>
      </root>
    </mxGraphModel>
  </diagram>
</mxfile>
